<?xml version="1.0" encoding="utf-8"?>
<!-- Generator: Adobe Illustrator 21.0.0, SVG Export Plug-In . SVG Version: 6.00 Build 0)  -->
<svg version="1.1" id="图层_1" xmlns="http://www.w3.org/2000/svg" xmlns:xlink="http://www.w3.org/1999/xlink" x="0px" y="0px"
	 viewBox="0 0 94 20" style="enable-background:new 0 0 94 20;" xml:space="preserve">
<style type="text/css">
	.st0{fill:#FFFFFF;}
	.st1{fill:url(#SVGID_1_);}
	.st2{fill:url(#SVGID_2_);}
	.st3{fill:url(#SVGID_3_);}
	.st4{fill:url(#SVGID_4_);}
</style>
<path id="RealSecure" class="st0" d="M30.3,9.4c0.6,0,1-0.1,1.3-0.3C31.9,8.9,32,8.5,32,7.9c0-0.6-0.2-1-0.6-1.2
	c-0.2-0.1-0.6-0.2-1-0.2h-2.9v2.8H30.3z M27.5,14.9h-1.7V5h4.6c0.7,0,1.4,0.1,1.9,0.3c1,0.4,1.5,1.3,1.5,2.4c0,0.6-0.1,1.1-0.4,1.5
	c-0.2,0.3-0.4,0.5-0.7,0.7c0.2,0.1,0.4,0.3,0.6,0.5c0.2,0.3,0.3,0.7,0.4,1.3l0,1.3c0,0.3,0,0.6,0.1,0.8c0.1,0.2,0.2,0.4,0.3,0.4
	l0.1,0.2v0.4h-1.8l-0.2-0.1c-0.1-0.1-0.1-0.2-0.1-0.4c0-0.1-0.1-0.4-0.1-0.8l-0.1-1.6c0-0.6-0.2-0.9-0.6-1.1
	c-0.2-0.1-0.6-0.2-1.1-0.2h-2.7V14.9z M36.8,13.2c0.3,0.4,0.7,0.6,1.3,0.6c0.6,0,1-0.2,1.3-0.5c0.2-0.2,0.3-0.5,0.4-0.7l0-0.1h1.5
	l0,0.2c0,0.3-0.1,0.6-0.3,0.9c-0.2,0.3-0.4,0.6-0.6,0.8c-0.4,0.4-0.8,0.6-1.4,0.7c-0.3,0.1-0.6,0.1-1,0.1c-0.9,0-1.7-0.3-2.3-1
	c-0.6-0.7-1-1.6-1-2.8c0-1.2,0.3-2.1,1-2.8c0.6-0.7,1.5-1.1,2.5-1.1c0.5,0,1,0.1,1.5,0.4c0.5,0.2,0.9,0.6,1.1,1
	c0.2,0.4,0.4,0.8,0.5,1.3c0.1,0.3,0.1,0.9,0.1,1.6v0.2h-5.1C36.4,12.4,36.5,12.9,36.8,13.2z M39.5,9.6c-0.3-0.5-0.7-0.7-1.4-0.7
	c-0.5,0-0.9,0.2-1.2,0.5c-0.3,0.3-0.5,0.7-0.5,1.1h3.4C39.7,10.1,39.6,9.8,39.5,9.6z M46.4,11.6c-0.2,0.1-0.5,0.1-0.7,0.1L45,11.8
	c-0.4,0.1-0.7,0.1-0.9,0.2c-0.3,0.2-0.4,0.4-0.4,0.8c0,0.3,0.1,0.5,0.3,0.6c0.2,0.2,0.5,0.2,0.7,0.2c0.4,0,0.7-0.1,1.1-0.3
	c0.6-0.3,0.9-0.7,0.9-1.4v-0.6C46.6,11.6,46.5,11.6,46.4,11.6z M46.7,10.1c0-0.1,0.1-0.2,0.1-0.4c0-0.3-0.1-0.6-0.3-0.7
	c-0.2-0.2-0.6-0.2-1.1-0.2c-0.6,0-0.9,0.1-1.1,0.4c-0.1,0.1-0.2,0.4-0.2,0.7l0,0.2h-1.5l0-0.2c0-0.9,0.3-1.6,0.9-1.9
	c0.6-0.4,1.2-0.5,2-0.5c0.8,0,1.5,0.2,2.1,0.5c0.6,0.3,0.9,0.9,0.9,1.6v4c0,0.1,0,0.1,0,0.2c0,0,0,0,0.1,0c0,0,0.1,0,0.2,0
	c0.1,0,0.1,0,0.2,0l0.2,0v1.2l-0.1,0C48.7,15,48.5,15,48.4,15c-0.1,0-0.2,0-0.4,0c-0.5,0-0.8-0.2-1-0.5c-0.1-0.1-0.1-0.2-0.1-0.3
	c-0.2,0.2-0.5,0.4-0.8,0.6c-0.5,0.2-1,0.4-1.6,0.4c-0.7,0-1.3-0.2-1.7-0.6c-0.4-0.4-0.7-1-0.7-1.6c0-0.7,0.2-1.2,0.7-1.6
	c0.4-0.4,1-0.6,1.7-0.7l1.9-0.2C46.5,10.3,46.6,10.2,46.7,10.1z M51.3,5v9.9h-1.6V5H51.3z M54.1,11.7c0,0.5,0.1,0.9,0.3,1.2
	c0.4,0.6,1.1,0.9,2.1,0.9c0.5,0,0.9-0.1,1.3-0.2c0.7-0.2,1-0.6,1-1.2c0-0.5-0.1-0.8-0.4-0.9c-0.3-0.2-0.8-0.4-1.5-0.5l-1.3-0.3
	c-0.9-0.2-1.5-0.4-1.8-0.7c-0.7-0.4-1-1.1-1-1.9c0-0.9,0.3-1.7,0.9-2.2c0.6-0.6,1.5-0.9,2.6-0.9c1,0,1.9,0.3,2.6,0.8
	c0.8,0.5,1.1,1.3,1.1,2.5v0.2h-1.6l0-0.2c-0.1-0.5-0.2-0.8-0.4-1.1c-0.3-0.4-1-0.7-1.8-0.7c-0.7,0-1.2,0.1-1.5,0.4
	c-0.3,0.3-0.4,0.6-0.4,1c0,0.4,0.2,0.7,0.5,0.8c0.2,0.1,0.8,0.3,1.7,0.5l1.3,0.3c0.7,0.2,1.2,0.4,1.6,0.6c0.7,0.5,1,1.2,1,2.1
	c0,1.1-0.4,1.9-1.2,2.4c-0.8,0.5-1.7,0.7-2.8,0.7c-1.2,0-2.2-0.3-2.9-1c-0.7-0.6-1.1-1.5-1-2.6l0-0.2h1.6L54.1,11.7z M63.2,13.2
	c0.3,0.4,0.7,0.6,1.3,0.6c0.6,0,1-0.2,1.3-0.5c0.2-0.2,0.3-0.5,0.4-0.7l0-0.1h1.5l0,0.2c0,0.3-0.1,0.6-0.3,0.9
	c-0.2,0.3-0.4,0.6-0.6,0.8c-0.4,0.4-0.8,0.6-1.4,0.7c-0.3,0.1-0.6,0.1-1,0.1c-0.9,0-1.7-0.3-2.3-1c-0.6-0.7-1-1.6-1-2.8
	c0-1.2,0.3-2.1,1-2.8c0.6-0.7,1.5-1.1,2.5-1.1c0.5,0,1,0.1,1.5,0.4c0.5,0.2,0.9,0.6,1.1,1c0.2,0.4,0.4,0.8,0.5,1.3
	c0.1,0.3,0.1,0.9,0.1,1.6v0.2h-5.1C62.8,12.4,63,12.9,63.2,13.2z M65.9,9.6c-0.3-0.5-0.7-0.7-1.4-0.7c-0.5,0-0.9,0.2-1.2,0.5
	c-0.3,0.3-0.5,0.7-0.5,1.1h3.4C66.2,10.1,66.1,9.8,65.9,9.6z M71.7,7.4c0.8,0,1.5,0.2,2,0.6c0.5,0.4,0.9,1.1,1,2.1l0,0.2h-1.5l0-0.2
	c-0.1-0.4-0.2-0.7-0.4-1c-0.2-0.2-0.5-0.4-1-0.4c-0.7,0-1.1,0.3-1.4,1c-0.2,0.4-0.3,1-0.3,1.7c0,0.7,0.1,1.2,0.4,1.6
	c0.3,0.4,0.6,0.6,1.2,0.6c0.4,0,0.8-0.1,1-0.4c0.3-0.3,0.4-0.6,0.5-1.1l0-0.2h1.5l0,0.2c-0.1,1-0.5,1.7-1,2.1
	c-0.6,0.5-1.3,0.7-2.1,0.7c-1,0-1.7-0.4-2.3-1.1c-0.6-0.7-0.9-1.6-0.9-2.6c0-1.3,0.3-2.3,0.9-3C69.9,7.8,70.7,7.4,71.7,7.4z
	 M79.7,14.5c-0.5,0.4-1.1,0.6-1.7,0.6c-1.1,0-1.8-0.4-2.2-1.1c-0.2-0.4-0.3-0.9-0.3-1.5V7.6H77v4.8c0,0.3,0.1,0.6,0.1,0.8
	c0.2,0.3,0.5,0.5,1,0.5c0.7,0,1.2-0.3,1.5-1c0.1-0.4,0.2-0.9,0.2-1.5V7.6h1.6v7.3h-1.5l0-0.6C79.8,14.4,79.8,14.5,79.7,14.5z
	 M84.7,8c0.4-0.4,0.8-0.6,1.4-0.6c0,0,0.1,0,0.1,0c0.1,0,0.1,0,0.3,0l0.2,0v1.6l-0.2,0c-0.1,0-0.1,0-0.2,0c-0.1,0-0.1,0-0.2,0
	c-0.5,0-0.9,0.2-1.2,0.5c-0.3,0.3-0.4,0.7-0.4,1.2v4.2h-1.6V7.6h1.5v0.7C84.4,8.2,84.6,8.1,84.7,8z M88.9,13.2
	c0.3,0.4,0.7,0.6,1.3,0.6c0.6,0,1-0.2,1.3-0.5c0.2-0.2,0.3-0.5,0.4-0.7l0-0.1h1.5l0,0.2c0,0.3-0.1,0.6-0.3,0.9
	c-0.2,0.3-0.4,0.6-0.6,0.8c-0.4,0.4-0.8,0.6-1.4,0.7c-0.3,0.1-0.6,0.1-1,0.1c-0.9,0-1.7-0.3-2.3-1c-0.6-0.7-1-1.6-1-2.8
	c0-1.2,0.3-2.1,1-2.8c0.6-0.7,1.5-1.1,2.5-1.1c0.5,0,1,0.1,1.5,0.4c0.5,0.2,0.9,0.6,1.1,1c0.2,0.4,0.4,0.8,0.5,1.3
	c0.1,0.3,0.1,0.9,0.1,1.6v0.2h-5.1C88.5,12.4,88.7,12.9,88.9,13.2z M91.6,9.6c-0.3-0.5-0.7-0.7-1.4-0.7c-0.5,0-0.9,0.2-1.2,0.5
	c-0.3,0.3-0.5,0.7-0.5,1.1h3.4C91.9,10.1,91.8,9.8,91.6,9.6z"/>
<g id="分组">
	<g id="路径">
		
			<linearGradient id="SVGID_1_" gradientUnits="userSpaceOnUse" x1="-463.4439" y1="231.8563" x2="-464.3712" y2="231.2336" gradientTransform="matrix(7.901 0 0 -8.0134 3671.6648 1859.8164)">
			<stop  offset="0" style="stop-color:#157EFB"/>
			<stop  offset="1" style="stop-color:#373BEB"/>
		</linearGradient>
		<path class="st1" d="M5.4,8.3L0.5,5.4C0.3,5.3,0.3,5,0.5,4.9l7.3-4.5c0.2-0.1,0.5,0,0.5,0.3v5.8c0,0.1-0.1,0.2-0.2,0.3L5.4,8.3z"
			/>
		
			<linearGradient id="SVGID_2_" gradientUnits="userSpaceOnUse" x1="-467.0465" y1="245.3672" x2="-466.0465" y2="245.3672" gradientTransform="matrix(8.1905 0 0 -14.8765 3825.3652 3662.4985)">
			<stop  offset="0" style="stop-color:#1ABCFC"/>
			<stop  offset="1" style="stop-color:#0083FC"/>
		</linearGradient>
		<path class="st2" d="M7.4,9.5L0.5,5.4l0,0c0,0,0,0,0,0c-0.3-0.2,0-0.5,0-0.5S0.3,5,0.2,5.2C0,5.4,0,5.7,0,5.7v9.6
			c0,0.1,0.1,0.2,0.2,0.3l6.9,4.1c0.5,0.3,1.1-0.1,1.1-0.7V11C8.2,10.4,7.9,9.8,7.4,9.5z"/>
	</g>
	<g id="路径_1_" transform="translate(10.476190, 0.000000)">
		
			<linearGradient id="SVGID_3_" gradientUnits="userSpaceOnUse" x1="-475.6336" y1="231.8569" x2="-474.7101" y2="231.2342" gradientTransform="matrix(7.9328 0 0 -8.0134 3771.5916 1859.8164)">
			<stop  offset="0" style="stop-color:#157EFB"/>
			<stop  offset="1" style="stop-color:#373BEB"/>
		</linearGradient>
		<path class="st3" d="M3.1,8.3L8,5.4C8.2,5.3,8.3,5,8,4.9L0.7,0.3c-0.2-0.1-0.5,0-0.5,0.3v5.8c0,0.1,0.1,0.2,0.2,0.3L3.1,8.3z"/>
		
			<linearGradient id="SVGID_4_" gradientUnits="userSpaceOnUse" x1="-476.5227" y1="245.3327" x2="-477.5227" y2="245.3327" gradientTransform="matrix(8.1905 0 0 -14.8447 3911.3923 3654.2126)">
			<stop  offset="0" style="stop-color:#1ABCFC"/>
			<stop  offset="1" style="stop-color:#0083FC"/>
		</linearGradient>
		<path class="st4" d="M1.1,9.5L8,5.5l0,0c0,0,0,0,0,0c0.3-0.2,0-0.5,0-0.5S8.2,5,8.3,5.2c0.1,0.2,0.1,0.5,0.1,0.5v9.6
			c0,0.1-0.1,0.2-0.2,0.3l-6.9,4.1c-0.5,0.3-1.1-0.1-1.1-0.7V11C0.3,10.4,0.6,9.8,1.1,9.5z"/>
	</g>
</g>
</svg>
