<?xml version="1.0" encoding="utf-8"?>
<!-- Generator: Adobe Illustrator 23.0.2, SVG Export Plug-In . SVG Version: 6.00 Build 0)  -->
<svg version="1.1" id="图层_1" xmlns="http://www.w3.org/2000/svg" xmlns:xlink="http://www.w3.org/1999/xlink" x="0px" y="0px"
	 viewBox="0 0 24 24" style="enable-background:new 0 0 24 24;" xml:space="preserve">
<style type="text/css">
	.st0{fill-rule:evenodd;clip-rule:evenodd;fill:#FDEE54;}
	.st1{fill-rule:evenodd;clip-rule:evenodd;fill:#FDCB36;}
	.st2{fill-rule:evenodd;clip-rule:evenodd;fill:#FFBF3D;}
	.st3{opacity:0.9;fill:#C9D4E6;enable-background:new    ;}
	.st4{fill:#FFFFFF;}
	.st5{fill-rule:evenodd;clip-rule:evenodd;fill:#298AEC;fill-opacity:0.9;}
	.st6{fill-rule:evenodd;clip-rule:evenodd;fill:#212A3A;fill-opacity:0.8;}
	.st7{fill-rule:evenodd;clip-rule:evenodd;fill:#22A2F9;}
	.st8{fill-rule:evenodd;clip-rule:evenodd;fill:#87CDFC;}
	.st9{fill-rule:evenodd;clip-rule:evenodd;fill:#FFFFFF;}
</style>
<path id="路径" class="st3" d="M12,0C5.4,0,0,5.4,0,12c0,6.6,5.4,12,12,12c6.6,0,12-5.4,12-12C24,5.4,18.6,0,12,0L12,0z"/>
<path class="st4" d="M12.1,3.4c4.6,0,4.6,3.4,4.6,5.3c0,1.9-1.8,5.4-4.6,5.5c-2.7,0-4.6-3.5-4.6-5.5C7.6,6.8,7.6,3.4,12.1,3.4z
	 M12,23.3c-3.4,0-6.5-1.5-8.6-4c0.3-0.7,0.7-1.5,1.2-2C5.7,16.5,9.1,15,9.1,15l2.1,4l0.4-1l-0.6-1.2l1.2-1.2l1.2,1.2l-0.5,1.2l0.3,1
	l2.2-3.9c0,0,3.3,1.5,4.5,2.3c0.5,0.4,0.9,1,1.1,1.6C18.8,21.7,15.6,23.3,12,23.3L12,23.3z"/>
</svg>
